<?xml version="1.0" encoding="UTF-8" standalone="no"?> <svg width="64" height="64" viewBox="0 0 64 64" fill="none" xmlns="http://www.w3.org/2000/svg">
<path d="M47 15V19V23L54 27V19L47 15Z" fill="#9BC9FF"/>
<path d="M54 27L61 23V15L54 19V27Z" fill="#9BC9FF"/>
<path d="M32 19L39 15V7L32 11V19Z" fill="#9BC9FF"/>
<path d="M32 11L25 7V15L32 19V11Z" fill="#9BC9FF"/>
<path d="M3 15V23L10 27V19L3 15Z" fill="#9BC9FF"/>
<path d="M17 19V15L10 19V27L17 23V19Z" fill="#9BC9FF"/>
<path d="M32 40L39 36V28L32 32V40Z" fill="#9BC9FF"/>
<path d="M25 28V36L32 40V32L25 28Z" fill="#9BC9FF"/>
<path d="M54 53L61 49V41L54 45V53Z" fill="#9BC9FF"/>
<path d="M47 41V49L54 53V45L47 41Z" fill="#9BC9FF"/>
<path d="M32 53V61L39 57V54V49L32 53Z" fill="#9BC9FF"/>
<path d="M25 49V54V57L32 61V53L25 49Z" fill="#9BC9FF"/>
<path d="M10 45V52V45L3 41V49L10 53L17 49V41L10 45Z" fill="#9BC9FF"/>
<path d="M61.5 23.868C61.6523 23.7801 61.7787 23.6535 61.8665 23.5011C61.9543 23.3487 62.0004 23.1759 62 23V15C62.0004 14.8241 61.9543 14.6513 61.8665 14.4989C61.7787 14.3465 61.6523 14.2199 61.5 14.132L54.5 10.132C54.3489 10.0457 54.178 10.0003 54.004 10.0003C53.83 10.0003 53.6591 10.0457 53.508 10.132L46.508 14.132C46.3542 14.2189 46.2262 14.345 46.1369 14.4975C46.0477 14.65 46.0005 14.8233 46 15V17.382L40 14.382V7C40.0004 6.82413 39.9543 6.65127 39.8665 6.49888C39.7787 6.34648 39.6523 6.21993 39.5 6.132L32.5 2.132C32.3489 2.04571 32.178 2.00032 32.004 2.00032C31.83 2.00032 31.6591 2.04571 31.508 2.132L24.508 6.132C24.3542 6.21891 24.2262 6.34502 24.1369 6.49749C24.0477 6.64995 24.0005 6.82334 24 7V14.382L18 17.382V15C18.0003 14.8241 17.9543 14.6513 17.8665 14.4989C17.7787 14.3465 17.6523 14.2199 17.5 14.132L10.5 10.132C10.3489 10.0457 10.178 10.0003 10.004 10.0003C9.83003 10.0003 9.65907 10.0457 9.508 10.132L2.508 14.132C2.3542 14.2189 2.22617 14.345 2.13694 14.4975C2.04771 14.65 2.00046 14.8233 2 15V23C1.99965 23.1759 2.0457 23.3487 2.13348 23.5011C2.22127 23.6535 2.34769 23.7801 2.5 23.868L9 27.58V36.42L2.5 40.132C2.34769 40.2199 2.22127 40.3465 2.13348 40.4989C2.0457 40.6513 1.99965 40.8241 2 41V49C1.99965 49.1759 2.0457 49.3487 2.13348 49.5011C2.22127 49.6535 2.34769 49.7801 2.5 49.868L9.5 53.868C9.65107 53.9543 9.82203 53.9997 9.996 53.9997C10.17 53.9997 10.3409 53.9543 10.492 53.868L16.973 50.168L24 54.555V57C23.9997 57.1759 24.0457 57.3487 24.1335 57.5011C24.2213 57.6535 24.3477 57.7801 24.5 57.868L31.5 61.868C31.6511 61.9543 31.822 61.9997 31.996 61.9997C32.17 61.9997 32.3409 61.9543 32.492 61.868L39.492 57.868C39.6458 57.7811 39.7738 57.655 39.8631 57.5025C39.9523 57.35 39.9995 57.1767 40 57V54.555L47.023 50.165L53.504 53.865C53.6551 53.9513 53.826 53.9967 54 53.9967C54.174 53.9967 54.3449 53.9513 54.496 53.865L61.496 49.865C61.6486 49.7778 61.7756 49.652 61.864 49.5001C61.9525 49.3482 61.9994 49.1758 62 49V41C62.0004 40.8241 61.9543 40.6513 61.8665 40.4989C61.7787 40.3465 61.6523 40.2199 61.5 40.132L55 36.42V27.58L61.5 23.868ZM55 25.277V19.577L60 16.72V22.42L55 25.277ZM54 43.848L49.015 41L54 38.152L58.985 41L54 43.848ZM48 16.723L53 19.58V25.28L48 22.42V16.723ZM54 12.152L58.985 15L54 17.848L49.015 15L54 12.152ZM32 51.852L27.015 49L32 46.152L36.985 49L32 51.852ZM26 29.723L31 32.58V38.28L26 35.42V29.723ZM33 32.58L38 29.723V35.423L33 38.28V32.58ZM32 30.848L27.015 28L32 25.152L36.985 28L32 30.848ZM26 8.723L31 11.58V17.28L26 14.42V8.723ZM33 11.58L38 8.723V14.423L33 17.28V11.58ZM32 4.152L36.985 7L32 9.848L27.015 7L32 4.152ZM11 19.58L16 16.723V22.423L11 25.28V19.58ZM10 12.152L14.985 15L10 17.848L5.015 15L10 12.152ZM4 16.723L9 19.58V25.28L4 22.42V16.723ZM10 43.848L5.015 41L10 38.152L14.985 41L10 43.848ZM4 42.723L9 45.58V51.28L4 48.42V42.723ZM11 51.277V45.577L16 42.72V48.42L11 51.277ZM18 48.445V41C18.0003 40.8241 17.9543 40.6513 17.8665 40.4989C17.7787 40.3465 17.6523 40.2199 17.5 40.132L11 36.42V27.58L17.5 23.868C17.6523 23.7801 17.7787 23.6535 17.8665 23.5011C17.9543 23.3487 18.0003 23.1759 18 23V19.618L24.969 16.134L31 19.58V23.42L24.5 27.132C24.3477 27.2199 24.2213 27.3465 24.1335 27.4989C24.0457 27.6513 23.9997 27.8241 24 28V36C23.9997 36.1759 24.0457 36.3487 24.1335 36.5011C24.2213 36.6535 24.3477 36.7801 24.5 36.868L31 40.58V44.42L24.5 48.132C24.3477 48.2199 24.2213 48.3465 24.1335 48.4989C24.0457 48.6513 23.9997 48.8241 24 49V52.2L18 48.445ZM26 50.723L31 53.58V59.28L26 56.42V50.723ZM33 59.277V53.577L38 50.72V56.42L33 59.277ZM39.5 48.132L33 44.42V40.58L39.5 36.868C39.6523 36.7801 39.7787 36.6535 39.8665 36.5011C39.9543 36.3487 40.0004 36.1759 40 36V28C40.0004 27.8241 39.9543 27.6513 39.8665 27.4989C39.7787 27.3465 39.6523 27.2199 39.5 27.132L33 23.42V19.58L39.031 16.134L46 19.618V23C45.9997 23.1759 46.0457 23.3487 46.1335 23.5011C46.2213 23.6535 46.3477 23.7801 46.5 23.868L53 27.58V36.42L46.5 40.132C46.3477 40.2199 46.2213 40.3465 46.1335 40.4989C46.0457 40.6513 45.9997 40.8241 46 41V48.445L40 52.2V49C40.0004 48.8241 39.9543 48.6513 39.8665 48.4989C39.7787 48.3465 39.6523 48.2199 39.5 48.132ZM48 42.723L53 45.58V51.28L48 48.42V42.723ZM55 51.277V45.577L60 42.72V48.42L55 51.277Z" fill="#1E81CE"/>
</svg>
