<?xml version="1.0" encoding="UTF-8" standalone="no"?> <svg width="64" height="64" viewBox="0 0 64 64" fill="none" xmlns="http://www.w3.org/2000/svg">
<path d="M32 61C48.0163 61 61 48.0163 61 32C61 15.9837 48.0163 3 32 3C15.9837 3 3 15.9837 3 32C3 48.0163 15.9837 61 32 61Z" fill="#6D6E71"/>
<path d="M32 57C45.8071 57 57 45.8071 57 32C57 18.1929 45.8071 7 32 7C18.1929 7 7 18.1929 7 32C7 45.8071 18.1929 57 32 57Z" fill="#58595B"/>
<path d="M32.145 3C32.4689 4.32118 32.6994 5.66348 32.835 7.017C37.452 7.17087 41.936 8.60098 45.7895 11.1486C49.6431 13.6962 52.7154 17.2618 54.6655 21.4495C56.6156 25.6372 57.3673 30.2834 56.8371 34.8724C56.3069 39.4614 54.5155 43.8138 51.6619 47.4465C48.8082 51.0793 45.0039 53.8503 40.6709 55.4521C36.338 57.0539 31.646 57.4238 27.1156 56.5209C22.5851 55.6179 18.3935 53.4773 15.0058 50.3367C11.6181 47.1961 9.16681 43.1782 7.924 38.729C6.62353 38.907 5.31259 38.9975 4 39C3.951 39 3.9 39 3.855 39C5.16543 44.2681 7.92825 49.0626 11.8291 52.838C15.7299 56.6134 20.6122 59.2181 25.9203 60.3557C31.2284 61.4933 36.7492 61.1182 41.8547 59.273C46.9601 57.4277 51.4451 54.1865 54.7993 49.9181C58.1536 45.6497 60.2424 40.5255 60.8281 35.1286C61.4138 29.7316 60.4729 24.2786 58.1125 19.39C55.752 14.5014 52.0668 10.3735 47.4761 7.47597C42.8854 4.57844 37.5736 3.02763 32.145 3V3Z" fill="#58595B"/>
<path d="M32 57C38.5277 56.9544 44.7787 54.3574 49.417 49.764C54.0553 45.1706 56.7129 38.9452 56.822 32.4182C56.931 25.8913 54.4828 19.5805 50.0005 14.8347C45.5183 10.089 39.3575 7.2846 32.835 7.021C32.9411 8.01051 32.9961 9.00482 33 10C32.999 17.0108 30.4582 23.7839 25.848 29.0657C21.2378 34.3475 14.8703 37.7804 7.924 38.729C9.39287 43.9848 12.5412 48.6157 16.8883 51.9147C21.2355 55.2137 26.5428 56.9997 32 57V57Z" fill="#414042"/>
<path d="M46 38H23L18 44H41L46 38Z" fill="#424EDE"/>
<path d="M46 35L41 29H18L23 35H46Z" fill="#2488FF"/>
<path d="M46 20H23L18 26H41L46 20Z" fill="#00DDC2"/>
<path d="M32 62C26.0666 62 20.2664 60.2405 15.3329 56.9441C10.3994 53.6477 6.55424 48.9623 4.28361 43.4805C2.01298 37.9987 1.41888 31.9667 2.57644 26.1473C3.734 20.3279 6.59122 14.9824 10.7868 10.7868C14.9824 6.59123 20.3279 3.73401 26.1473 2.57646C31.9667 1.4189 37.9987 2.013 43.4805 4.28363C48.9623 6.55426 53.6476 10.3994 56.9441 15.3329C60.2405 20.2664 62 26.0666 62 32C61.991 39.9537 58.8274 47.5791 53.2033 53.2033C47.5791 58.8274 39.9537 61.991 32 62V62ZM32 4.00001C26.4621 4.00001 21.0486 5.64218 16.444 8.71886C11.8395 11.7955 8.25062 16.1685 6.13137 21.2849C4.01212 26.4012 3.45762 32.0311 4.53801 37.4625C5.6184 42.894 8.28514 47.8831 12.201 51.799C16.1169 55.7149 21.106 58.3816 26.5375 59.462C31.9689 60.5424 37.5988 59.9879 42.7151 57.8686C47.8315 55.7494 52.2045 52.1606 55.2812 47.556C58.3578 42.9514 60 37.5379 60 32C59.9915 24.5766 57.0388 17.4596 51.7896 12.2104C46.5405 6.96119 39.4235 4.00848 32 4.00001V4.00001Z" fill="#231F20"/>
<path d="M32 58C26.8577 58 21.8308 56.4751 17.5552 53.6182C13.2795 50.7613 9.94701 46.7007 7.97913 41.9498C6.01125 37.1989 5.49636 31.9712 6.49958 26.9277C7.50279 21.8842 9.97905 17.2514 13.6152 13.6152C17.2514 9.97907 21.8841 7.50281 26.9276 6.49959C31.9712 5.49638 37.1989 6.01127 41.9498 7.97914C46.7006 9.94702 50.7613 13.2795 53.6182 17.5552C56.4751 21.8309 58 26.8577 58 32C57.9921 38.8932 55.2502 45.5018 50.376 50.376C45.5018 55.2502 38.8932 57.9921 32 58ZM32 8.00001C27.2532 8.00001 22.6131 9.40759 18.6663 12.0447C14.7195 14.6819 11.6434 18.4302 9.82689 22.8156C8.01038 27.201 7.5351 32.0266 8.46115 36.6822C9.38719 41.3377 11.673 45.6141 15.0294 48.9706C18.3859 52.327 22.6623 54.6128 27.3178 55.5389C31.9734 56.4649 36.799 55.9896 41.1844 54.1731C45.5698 52.3566 49.3181 49.2805 51.9553 45.3337C54.5924 41.3869 56 36.7468 56 32C55.9926 25.6371 53.4616 19.5369 48.9624 15.0376C44.4631 10.5384 38.3629 8.00742 32 8.00001V8.00001Z" fill="#231F20"/>
<path d="M41 45H18C17.81 44.9999 17.6239 44.9457 17.4636 44.8437C17.3033 44.7417 17.1753 44.5962 17.0948 44.4241C17.0142 44.252 16.9843 44.0605 17.0086 43.8721C17.0329 43.6836 17.1104 43.506 17.232 43.36L22.232 37.36C22.3258 37.2474 22.4432 37.1568 22.5759 37.0945C22.7087 37.0323 22.8534 37.0001 23 37H46C46.1901 36.9999 46.3763 37.0539 46.5368 37.1559C46.6972 37.2578 46.8253 37.4033 46.906 37.5755C46.9867 37.7476 47.0167 37.9391 46.9924 38.1277C46.9682 38.3162 46.8907 38.4939 46.769 38.64L41.769 44.64C41.6751 44.7528 41.5575 44.8435 41.4246 44.9057C41.2917 44.9679 41.1467 45.0001 41 45ZM20.135 43H40.535L43.869 39H23.469L20.135 43Z" fill="#231F20"/>
<path d="M46 36H23C22.8534 35.9999 22.7087 35.9677 22.5759 35.9055C22.4432 35.8432 22.3258 35.7526 22.232 35.64L17.232 29.64C17.1104 29.494 17.0329 29.3164 17.0086 29.1279C16.9843 28.9395 17.0142 28.748 17.0948 28.5759C17.1753 28.4038 17.3033 28.2583 17.4636 28.1563C17.6239 28.0543 17.81 28.0001 18 28H41C41.1467 27.9999 41.2917 28.0321 41.4246 28.0943C41.5575 28.1565 41.6751 28.2472 41.769 28.36L46.769 34.36C46.8907 34.5061 46.9682 34.6838 46.9924 34.8723C47.0167 35.0609 46.9867 35.2524 46.906 35.4245C46.8253 35.5967 46.6972 35.7422 46.5368 35.8441C46.3763 35.9461 46.1901 36.0001 46 36ZM23.468 34H43.868L40.534 30H20.134L23.468 34Z" fill="#231F20"/>
<path d="M41 27H18C17.81 26.9999 17.6239 26.9457 17.4636 26.8437C17.3033 26.7417 17.1753 26.5962 17.0948 26.4241C17.0142 26.252 16.9843 26.0605 17.0086 25.8721C17.0329 25.6836 17.1104 25.506 17.232 25.36L22.232 19.36C22.3258 19.2474 22.4432 19.1568 22.5759 19.0945C22.7087 19.0323 22.8534 19.0001 23 19H46C46.1901 18.9999 46.3763 19.0539 46.5368 19.1559C46.6972 19.2578 46.8253 19.4033 46.906 19.5755C46.9867 19.7476 47.0167 19.9391 46.9924 20.1277C46.9682 20.3162 46.8907 20.4939 46.769 20.64L41.769 26.64C41.6751 26.7528 41.5575 26.8435 41.4246 26.9057C41.2917 26.9679 41.1467 27.0001 41 27ZM20.135 25H40.535L43.869 21H23.469L20.135 25Z" fill="#231F20"/>
</svg>
